<?xml version="1.0" encoding="UTF-8" standalone="no"?>
<!DOCTYPE svg PUBLIC "-//W3C//DTD SVG 1.1//EN"
 "http://www.w3.org/Graphics/SVG/1.1/DTD/svg11.dtd">
<!-- Generated by graphviz version 2.43.0 (0)
 -->
<!-- Title: components_relations Pages: 1 -->
<svg width="803pt" height="220pt"
 viewBox="0.00 0.00 802.92 220.00" xmlns="http://www.w3.org/2000/svg" xmlns:xlink="http://www.w3.org/1999/xlink">
<g id="graph0" class="graph" transform="scale(1 1) rotate(0) translate(4 216)">
<title>components_relations</title>
<polygon fill="white" stroke="transparent" points="-4,4 -4,-216 798.92,-216 798.92,4 -4,4"/>
<!-- architecture application service -->
<g id="node1" class="node">
<title>architecture application service</title>
<polygon fill="lightgrey" stroke="transparent" points="302.42,-212 127.61,-212 127.61,-184 302.42,-184 302.42,-212"/>
<text text-anchor="start" x="127.56" y="-201.8" font-family="Times,serif" font-weight="bold" font-size="14.00">architecture application service</text>
<text text-anchor="start" x="134.15" y="-187.8" font-family="Times,serif" font-size="14.00">[Information system service]</text>
</g>
<!-- architecture service -->
<g id="node2" class="node">
<title>architecture service</title>
<polygon fill="lightgrey" stroke="transparent" points="269.72,-134 160.31,-134 160.31,-106 269.72,-106 269.72,-134"/>
<text text-anchor="start" x="160.41" y="-123.8" font-family="Times,serif" font-weight="bold" font-size="14.00">architecture service</text>
<text text-anchor="start" x="163.88" y="-109.8" font-family="Times,serif" font-size="14.00">[Business service]</text>
</g>
<!-- architecture application service&#45;&gt;architecture service -->
<g id="edge1" class="edge">
<title>architecture application service&#45;&gt;architecture service</title>
<path fill="none" stroke="black" d="M215.01,-183.76C215.01,-172.86 215.01,-157.15 215.01,-144.18"/>
<polygon fill="black" stroke="black" points="218.51,-144.09 215.01,-134.09 211.51,-144.09 218.51,-144.09"/>
<text text-anchor="middle" x="236.38" y="-154.8" font-family="Times,serif" font-size="14.00">realizes</text>
</g>
<!-- architecture management -->
<g id="node3" class="node">
<title>architecture management</title>
<polygon fill="lightgrey" stroke="transparent" points="430.03,-56 -0.01,-56 -0.01,0 430.03,0 430.03,-56"/>
<text text-anchor="start" x="144.47" y="-45.8" font-family="Times,serif" font-weight="bold" font-size="14.00">architecture management</text>
<text text-anchor="start" x="185.46" y="-31.8" font-family="Times,serif" font-size="14.00">[Function]</text>
<text text-anchor="start" x="0" y="-3.8" font-family="Times,serif" font-size="14.00">Structure of components, relationships, principles, and guidelines for design.</text>
</g>
<!-- architecture service&#45;&gt;architecture management -->
<g id="edge2" class="edge">
<title>architecture service&#45;&gt;architecture management</title>
<path fill="none" stroke="black" d="M215.01,-105.72C215.01,-95.36 215.01,-80.42 215.01,-66.48"/>
<polygon fill="black" stroke="black" points="218.51,-66.11 215.01,-56.11 211.51,-66.11 218.51,-66.11"/>
<text text-anchor="middle" x="319.96" y="-76.8" font-family="Times,serif" font-size="14.00">provides governed interface to access</text>
</g>
<!-- knowledge application service -->
<g id="node4" class="node">
<title>knowledge application service</title>
<polygon fill="lightgrey" stroke="transparent" points="670.28,-212 499.74,-212 499.74,-184 670.28,-184 670.28,-212"/>
<text text-anchor="start" x="499.88" y="-201.8" font-family="Times,serif" font-weight="bold" font-size="14.00">knowledge application service</text>
<text text-anchor="start" x="504.15" y="-187.8" font-family="Times,serif" font-size="14.00">[Information system service]</text>
</g>
<!-- knowledge service -->
<g id="node6" class="node">
<title>knowledge service</title>
<polygon fill="lightgrey" stroke="transparent" points="637.08,-134 532.94,-134 532.94,-106 637.08,-106 637.08,-134"/>
<text text-anchor="start" x="532.73" y="-123.8" font-family="Times,serif" font-weight="bold" font-size="14.00">knowledge service</text>
<text text-anchor="start" x="533.88" y="-109.8" font-family="Times,serif" font-size="14.00">[Business service]</text>
</g>
<!-- knowledge application service&#45;&gt;knowledge service -->
<g id="edge3" class="edge">
<title>knowledge application service&#45;&gt;knowledge service</title>
<path fill="none" stroke="black" d="M585.01,-183.76C585.01,-172.86 585.01,-157.15 585.01,-144.18"/>
<polygon fill="black" stroke="black" points="588.51,-144.09 585.01,-134.09 581.51,-144.09 588.51,-144.09"/>
<text text-anchor="middle" x="606.38" y="-154.8" font-family="Times,serif" font-size="14.00">realizes</text>
</g>
<!-- knowledge management -->
<g id="node5" class="node">
<title>knowledge management</title>
<polygon fill="lightgrey" stroke="transparent" points="721.82,-56 448.2,-56 448.2,0 721.82,0 721.82,-56"/>
<text text-anchor="start" x="516.78" y="-45.8" font-family="Times,serif" font-weight="bold" font-size="14.00">knowledge management</text>
<text text-anchor="start" x="555.46" y="-31.8" font-family="Times,serif" font-size="14.00">[Function]</text>
<text text-anchor="start" x="448.36" y="-3.8" font-family="Times,serif" font-size="14.00">Management of models representing knowledge.</text>
</g>
<!-- knowledge service&#45;&gt;knowledge management -->
<g id="edge4" class="edge">
<title>knowledge service&#45;&gt;knowledge management</title>
<path fill="none" stroke="black" d="M585.01,-105.72C585.01,-95.36 585.01,-80.42 585.01,-66.48"/>
<polygon fill="black" stroke="black" points="588.51,-66.11 585.01,-56.11 581.51,-66.11 588.51,-66.11"/>
<text text-anchor="middle" x="689.96" y="-76.8" font-family="Times,serif" font-size="14.00">provides governed interface to access</text>
</g>
</g>
</svg>
