<?xml version="1.0" encoding="UTF-8" standalone="no"?>
<!DOCTYPE svg PUBLIC "-//W3C//DTD SVG 1.1//EN"
 "http://www.w3.org/Graphics/SVG/1.1/DTD/svg11.dtd">
<!-- Generated by graphviz version 2.43.0 (0)
 -->
<!-- Title: components_relations Pages: 1 -->
<svg width="652pt" height="329pt"
 viewBox="0.00 0.00 651.50 329.00" xmlns="http://www.w3.org/2000/svg" xmlns:xlink="http://www.w3.org/1999/xlink">
<g id="graph0" class="graph" transform="scale(1 1) rotate(0) translate(4 325)">
<title>components_relations</title>
<polygon fill="white" stroke="transparent" points="-4,4 -4,-325 647.5,-325 647.5,4 -4,4"/>
<!-- http://localhost:3030/architecture/data?graph=architecture#knowledge&#45;service -->
<g id="node1" class="node">
<title>http://localhost:3030/architecture/data?graph=architecture#knowledge&#45;service</title>
<polygon fill="lightgrey" stroke="transparent" points="145,-135 0,-135 0,-107 145,-107 145,-135"/>
<text text-anchor="start" x="0" y="-124.8" font-family="Times,serif" font-weight="bold" font-size="14.00">knowledge service</text>
<text text-anchor="start" x="7.5" y="-110.8" font-family="Times,serif" font-size="14.00">[Business service]</text>
</g>
<!-- http://localhost:3030/architecture/data?graph=architecture#knowledge&#45;management -->
<g id="node4" class="node">
<title>http://localhost:3030/architecture/data?graph=architecture#knowledge&#45;management</title>
<polygon fill="lightgrey" stroke="transparent" points="394.5,-56 44.5,-56 44.5,0 394.5,0 394.5,-56"/>
<text text-anchor="start" x="123" y="-45.8" font-family="Times,serif" font-weight="bold" font-size="14.00">knowledge management</text>
<text text-anchor="start" x="182.5" y="-31.8" font-family="Times,serif" font-size="14.00">[Function]</text>
<text text-anchor="start" x="44.5" y="-3.8" font-family="Times,serif" font-size="14.00">Management of models representing knowledge.</text>
</g>
<!-- http://localhost:3030/architecture/data?graph=architecture#knowledge&#45;service&#45;&gt;http://localhost:3030/architecture/data?graph=architecture#knowledge&#45;management -->
<g id="edge1" class="edge">
<title>http://localhost:3030/architecture/data?graph=architecture#knowledge&#45;service&#45;&gt;http://localhost:3030/architecture/data?graph=architecture#knowledge&#45;management</title>
<path fill="none" stroke="black" d="M69,-106.97C67.14,-96.96 66.47,-83.31 73.5,-74 76.71,-69.74 80.32,-65.88 84.25,-62.37"/>
<polygon fill="black" stroke="black" points="86.53,-65.02 92.16,-56.05 82.16,-59.56 86.53,-65.02"/>
<text text-anchor="middle" x="209" y="-77.8" font-family="Times,serif" font-size="14.00">provides governed interface to access</text>
</g>
<!-- http://localhost:3030/architecture/data?graph=architecture#architecture&#45;management -->
<g id="node2" class="node">
<title>http://localhost:3030/architecture/data?graph=architecture#architecture&#45;management</title>
<polygon fill="lightgrey" stroke="transparent" points="643.5,-242 89.5,-242 89.5,-186 643.5,-186 643.5,-242"/>
<text text-anchor="start" x="263" y="-231.8" font-family="Times,serif" font-weight="bold" font-size="14.00">architecture management</text>
<text text-anchor="start" x="329.5" y="-217.8" font-family="Times,serif" font-size="14.00">[Function]</text>
<text text-anchor="start" x="89.5" y="-189.8" font-family="Times,serif" font-size="14.00">Structure of components, relationships, principles, and guidelines for design.</text>
</g>
<!-- http://localhost:3030/architecture/data?graph=architecture#architecture&#45;modelling -->
<g id="node5" class="node">
<title>http://localhost:3030/architecture/data?graph=architecture#architecture&#45;modelling</title>
<polygon fill="lightgrey" stroke="transparent" points="457.5,-135 275.5,-135 275.5,-107 457.5,-107 457.5,-135"/>
<text text-anchor="start" x="275.5" y="-124.8" font-family="Times,serif" font-weight="bold" font-size="14.00">architecture modelling</text>
<text text-anchor="start" x="333" y="-110.8" font-family="Times,serif" font-size="14.00">[Process]</text>
</g>
<!-- http://localhost:3030/architecture/data?graph=architecture#architecture&#45;management&#45;&gt;http://localhost:3030/architecture/data?graph=architecture#architecture&#45;modelling -->
<g id="edge2" class="edge">
<title>http://localhost:3030/architecture/data?graph=architecture#architecture&#45;management&#45;&gt;http://localhost:3030/architecture/data?graph=architecture#architecture&#45;modelling</title>
<path fill="none" stroke="black" d="M366.5,-185.7C366.5,-172.87 366.5,-157.73 366.5,-145.44"/>
<polygon fill="black" stroke="black" points="370,-145.09 366.5,-135.09 363,-145.09 370,-145.09"/>
<text text-anchor="middle" x="458" y="-156.8" font-family="Times,serif" font-size="14.00">supports or is realized by</text>
</g>
<!-- http://localhost:3030/architecture/data?graph=architecture#architecture&#45;service -->
<g id="node3" class="node">
<title>http://localhost:3030/architecture/data?graph=architecture#architecture&#45;service</title>
<polygon fill="lightgrey" stroke="transparent" points="446,-321 287,-321 287,-293 446,-293 446,-321"/>
<text text-anchor="start" x="287" y="-310.8" font-family="Times,serif" font-weight="bold" font-size="14.00">architecture service</text>
<text text-anchor="start" x="301.5" y="-296.8" font-family="Times,serif" font-size="14.00">[Business service]</text>
</g>
<!-- http://localhost:3030/architecture/data?graph=architecture#architecture&#45;service&#45;&gt;http://localhost:3030/architecture/data?graph=architecture#architecture&#45;management -->
<g id="edge3" class="edge">
<title>http://localhost:3030/architecture/data?graph=architecture#architecture&#45;service&#45;&gt;http://localhost:3030/architecture/data?graph=architecture#architecture&#45;management</title>
<path fill="none" stroke="black" d="M366.5,-292.96C366.5,-282.36 366.5,-266.86 366.5,-252.47"/>
<polygon fill="black" stroke="black" points="370,-252.27 366.5,-242.27 363,-252.27 370,-252.27"/>
<text text-anchor="middle" x="502" y="-263.8" font-family="Times,serif" font-size="14.00">provides governed interface to access</text>
</g>
<!-- http://localhost:3030/architecture/data?graph=architecture#architecture&#45;modelling&#45;&gt;http://localhost:3030/architecture/data?graph=architecture#knowledge&#45;management -->
<g id="edge4" class="edge">
<title>http://localhost:3030/architecture/data?graph=architecture#architecture&#45;modelling&#45;&gt;http://localhost:3030/architecture/data?graph=architecture#knowledge&#45;management</title>
<path fill="none" stroke="black" d="M363.12,-106.62C359.89,-96.41 354.09,-82.67 344.5,-74 339.33,-69.32 333.63,-65.12 327.61,-61.35"/>
<polygon fill="black" stroke="black" points="328.99,-58.11 318.58,-56.13 325.49,-64.17 328.99,-58.11"/>
<text text-anchor="middle" x="471.5" y="-77.8" font-family="Times,serif" font-size="14.00">orchestrates and/or decomposes</text>
</g>
</g>
</svg>
